<svg xmlns="http://www.w3.org/2000/svg" fill-rule="evenodd" stroke-miterlimit="1.414" viewBox="0 0 162 44" clip-rule="evenodd" stroke-linejoin="round">
  <g fill="#fff">
    <path d="M85.3 25.07c-.37-.962-.86-1.812-1.487-2.54-.623-.72-1.37-1.324-2.203-1.784-.848-.455-1.76-.777-2.707-.954v-.098c1.763-.582 3.188-1.522 4.27-2.844 1.087-1.315 1.632-2.983 1.632-5.003 0-1.84-.366-3.355-1.1-4.553-.712-1.168-1.696-2.146-2.867-2.85-1.21-.715-2.533-1.218-3.912-1.488-1.388-.28-2.8-.427-4.216-.436H58.558v36.44h13.944c1.68 0 3.32-.175 4.924-.54 1.59-.362 3.02-.955 4.27-1.787 1.26-.826 2.297-1.95 3.018-3.274.756-1.36 1.14-3.05 1.14-5.05 0-1.21-.184-2.28-.555-3.25m-10.19-9c-.88.61-2.09.93-3.65.93h-4.5v-6.97h4.11c1.76 0 3.09.27 3.99.79.89.52 1.34 1.36 1.34 2.5 0 1.21-.438 2.12-1.298 2.74m1.81 13.33c-.358.56-.82.98-1.385 1.28-.58.306-1.204.507-1.908.62-.696.12-1.37.17-2.005.17h-4.67v-8.04h4.615c1.783 0 3.21.29 4.276.85 1.06.56 1.6 1.563 1.6 3.016 0 .867-.18 1.57-.53 2.113m84.82 9.56l-12.89-19.247L160.12 2.52H150.1l-6.56 11.25-6.64-11.24h-10.373l11.49 17.184L125.52 38.96h10.27l7.51-12.87 7.81 12.87m-114.947-6.3l7.294-4.116 6.48 11.108-7.29 4.118"/>
    <path d="M33.41.174c10.646 0 19.28 8.69 19.28 19.417 0 10.73-8.634 19.43-19.28 19.43-10.647 0-19.283-8.7-19.283-19.42C14.127 8.87 22.763.18 33.41.18m0 8.3c6.1 0 11.046 4.97 11.046 11.12 0 6.14-4.945 11.123-11.046 11.123-6.102 0-11.046-4.98-11.046-11.12S27.308 8.48 33.41 8.48"/>
    <path d="M29.58 14.788c2.238-1.813 5.317-1.84 7.575-.057l1.77-2.26c-3.333-2.62-7.857-2.58-11.142.09l1.8 2.24h-.002zM108.13 2.25c10.084 0 18.248 8.282 18.248 18.497 0 10.212-8.164 18.486-18.248 18.486-10.083 0-18.25-8.274-18.25-18.486 0-10.215 8.167-18.497 18.25-18.497m0 7.903c5.768 0 10.45 4.74 10.45 10.594 0 5.846-4.682 10.592-10.453 10.592-5.772 0-10.455-4.75-10.455-10.6 0-5.86 4.684-10.6 10.455-10.6"/>
    <path fill-rule="nonzero" d="M.428 2.137v1.04h4.275v.02L1.41 4.63v.866L4.704 6.93v.024H.428v1.04h6.857V7.01L2.817 5.082l4.468-1.966v-.98H.428zm2.455 8.513l2.996.993v.02l-3 .992V10.65zM.428 13.483v1.096l6.857-2.5v-.87L.428 8.72v1.1l1.533.528v2.6l-1.53.533zm0 1.83v2.327c0 .514.113.95.338 1.303.21.358.477.637.8.837.122.076.24.14.353.193.11.05.24.088.39.113.29.053.8.08 1.54.08.69 0 1.18-.017 1.46-.052.28-.044.55-.15.81-.315.76-.47 1.15-1.16 1.15-2.09v-2.4H.43zm5.874 1.04v1.24c.013.527-.18.935-.578 1.223-.16.14-.37.23-.626.268-.257.028-.683.043-1.28.043-.61 0-1.028-.015-1.25-.043-.226-.03-.413-.105-.56-.22-.398-.264-.597-.688-.597-1.27V16.35h4.9zM.428 21.38v4.38h.983v-3.34h2.02v2.85h.93v-2.85h1.95v3.34h.99v-4.38H.43zm0 7.666v2.888c0 .54.18.99.54 1.35.346.364.814.55 1.407.555.357 0 .688-.09.992-.27.295-.19.49-.48.588-.85h.02c.093.2.198.36.314.5.11.13.22.23.34.31.26.14.52.21.81.2.55 0 .99-.17 1.33-.52.33-.34.5-.85.51-1.52v-2.65H.43zm3.043 2.64c0 .385-.1.667-.3.846-.2.178-.44.268-.72.268-.27 0-.51-.09-.71-.268-.2-.18-.31-.46-.31-.847v-1.6h2.06v1.6zm2.89-.1c0 .38-.1.66-.28.837-.19.182-.42.273-.7.273-.27 0-.5-.09-.68-.273-.2-.178-.29-.457-.29-.837v-1.5h1.96v1.5zm-5.93 4.53v.978h2.82l4.04 2.066v-1.107L4.25 36.6l3.043-1.453v-1.1l-4.037 2.07H.43z"/>
  </g>
</svg>
