<svg xmlns="http://www.w3.org/2000/svg" fill-rule="evenodd" stroke-miterlimit="1.414" viewBox="0 0 166 43" clip-rule="evenodd" stroke-linejoin="round">
  <path fill="#fff" fill-rule="nonzero" d="M71.954 8.24c.995 0 1.81-.395 2.44-1.182l1.3 1.337c-1.03 1.16-2.245 1.74-3.643 1.74-1.39 0-2.54-.44-3.45-1.324-.9-.88-1.35-1.99-1.35-3.34 0-1.34.46-2.47 1.39-3.37.92-.9 2.05-1.35 3.38-1.35 1.49 0 2.74.57 3.74 1.7L74.5 3.88c-.64-.79-1.437-1.19-2.39-1.19-.76 0-1.41.25-1.953.75-.54.5-.81 1.17-.81 2.01 0 .85.256 1.527.766 2.037s1.13.766 1.86.766m5.33 1.79V.956h2.028v7.27h3.87v1.806h-5.9zm14.077-4.59c0-.81-.26-1.5-.78-2.07-.52-.57-1.16-.856-1.918-.856-.76 0-1.4.284-1.918.855-.52.574-.78 1.264-.78 2.07 0 .81.26 1.5.78 2.068.52.568 1.156.85 1.913.85.758 0 1.397-.282 1.916-.85.52-.566.78-1.254.78-2.064m.69 3.336c-.92.896-2.05 1.344-3.39 1.344-1.34 0-2.47-.45-3.39-1.342-.92-.893-1.378-2.01-1.378-3.34 0-1.333.46-2.447 1.377-3.343.914-.9 2.044-1.35 3.386-1.35 1.34 0 2.47.45 3.388 1.35.918.9 1.378 2.01 1.378 3.35 0 1.34-.46 2.45-1.376 3.35m5.49-1.09c.34.42.793.63 1.364.63.57 0 1.024-.21 1.357-.63.33-.42.5-.99.5-1.72V.96h2.02v5.07c0 1.316-.36 2.326-1.09 3.032-.73.705-1.66 1.058-2.79 1.058-1.14 0-2.07-.355-2.8-1.065s-1.1-1.718-1.1-3.025V.956h2.03v5.01c0 .73.17 1.302.5 1.72m12.79-.148c.5-.467.74-1.147.74-2.038 0-.892-.25-1.578-.75-2.058-.5-.48-1.26-.72-2.29-.72h-1.13V8.24h1.28c.93 0 1.64-.235 2.14-.703m1.49-5.394c.86.792 1.29 1.893 1.29 3.304 0 1.41-.42 2.527-1.26 3.35-.84.822-2.13 1.233-3.86 1.233h-3.1V.957h3.2c1.62 0 2.86.396 3.73 1.188m12.82-1.19h2.02v9.076h-2.024l-4.32-5.68v5.69h-2.03V.96h1.893l4.45 5.842V.954zm7.98 2.7l-1.14 2.637h2.272l-1.13-2.636zm2.74 6.376l-.84-1.96h-3.8l-.847 1.96h-2.155l3.92-9.07h1.96l3.92 9.08h-2.153zm6.39-7.32v7.32h-2.02V2.71h-2.57V.955h7.163V2.71h-2.57zM145.8.96h2.03v9.08h-2.022zm7.61 5.78l2.3-5.78h2.2l-3.64 9.08h-1.72L148.91.96h2.195l2.31 5.78zM165.55.96v1.8h-4.52v1.87h4.065v1.727h-4.063V8.24h4.66v1.79H159V.957h6.545zM71.956 23.82c.993 0 1.81-.395 2.44-1.183l1.3 1.338c-1.03 1.16-2.247 1.74-3.645 1.74-1.39 0-2.54-.442-3.45-1.325-.9-.883-1.35-1.997-1.35-3.343 0-1.346.46-2.47 1.39-3.37.92-.9 2.05-1.35 3.38-1.35 1.49 0 2.74.567 3.74 1.7l-1.26 1.43c-.64-.797-1.43-1.195-2.39-1.195-.76 0-1.41.25-1.95.746-.54.498-.81 1.17-.81 2.013 0 .85.26 1.53.77 2.04s1.13.77 1.86.77m12.08-2.8c0-.8-.26-1.5-.77-2.07-.52-.57-1.15-.85-1.91-.85s-1.39.29-1.91.86c-.52.57-.78 1.27-.78 2.07 0 .81.26 1.5.78 2.07s1.16.85 1.92.85 1.4-.28 1.92-.85.78-1.25.78-2.06m.69 3.34c-.92.9-2.05 1.35-3.39 1.35-1.34 0-2.47-.44-3.39-1.34-.91-.89-1.37-2.01-1.37-3.34s.46-2.44 1.38-3.34c.92-.89 2.05-1.34 3.39-1.34 1.34 0 2.47.45 3.39 1.35.92.9 1.38 2.01 1.38 3.35 0 1.33-.46 2.45-1.373 3.34M96 19.96l-2.45 4.96H92.3l-2.44-4.96v5.71h-2.03v-9.08h2.737l2.337 4.98 2.35-4.99h2.728v9.08h-2.02V19.9zm9.005 1c.24-.28.363-.67.363-1.2 0-.52-.16-.894-.476-1.115-.318-.22-.81-.33-1.476-.33h-1.155v3.05h1.36c.68 0 1.14-.135 1.38-.41m1.49-3.57c.63.54.95 1.37.95 2.49s-.33 1.94-.98 2.46c-.66.52-1.65.78-2.99.78h-1.21v2.53h-2.03v-9.08h3.21c1.39 0 2.41.27 3.04.81m4.94 5.92c.34.42.79.63 1.36.63.57 0 1.02-.21 1.35-.63.33-.42.5-.99.5-1.72v-5.01h2.02v5.08c0 1.317-.36 2.33-1.09 3.03-.72.71-1.65 1.06-2.79 1.06-1.13 0-2.07-.354-2.8-1.063-.73-.71-1.09-1.72-1.09-3.025v-5.08h2.03v5.01c0 .73.17 1.3.51 1.72m11.19-4.98v7.324h-2.03V18.3H118v-1.76h7.17v1.753h-2.57zm4.05-1.75h2.02v9.074h-2.03zm10.605 0h2.025v9.074h-2.02l-4.324-5.69v5.68h-2.02v-9.07h1.9l4.454 5.84v-5.85zm10.15 4.45h2.036v3.22c-.9 1.003-2.147 1.505-3.74 1.505-1.33 0-2.45-.44-3.355-1.32-.91-.88-1.36-1.99-1.36-3.34s.46-2.47 1.38-3.37c.93-.9 2.04-1.35 3.34-1.35 1.31 0 2.44.43 3.4 1.29l-1.05 1.52c-.41-.35-.78-.6-1.12-.73-.35-.13-.72-.2-1.11-.2-.77 0-1.42.26-1.95.79s-.79 1.22-.79 2.07c0 .86.25 1.54.76 2.06.5.51 1.11.77 1.81.77s1.28-.13 1.75-.4V21zm-73.39 11.11v1.78H69.8v1.96h4v1.78h-4V41.2h-2.02v-9.08h6.232zm8.66 4.488c0-.81-.26-1.5-.78-2.07-.52-.57-1.157-.855-1.914-.855-.76 0-1.395.28-1.915.85s-.78 1.26-.78 2.07c0 .81.26 1.5.78 2.07s1.15.85 1.91.85c.75 0 1.39-.28 1.91-.85s.78-1.25.78-2.06m.69 3.34c-.92.9-2.05 1.35-3.39 1.35-1.34 0-2.47-.446-3.39-1.34-.916-.898-1.374-2.01-1.374-3.345 0-1.333.46-2.448 1.377-3.343.92-.9 2.05-1.35 3.39-1.35 1.34 0 2.47.45 3.39 1.34.92.89 1.38 2.01 1.38 3.34 0 1.333-.46 2.447-1.37 3.343m5.5-1.092c.336.42.79.63 1.36.63.57 0 1.026-.21 1.36-.63.33-.42.5-.99.5-1.72v-5.01h2.02v5.08c0 1.32-.36 2.33-1.09 3.03-.73.705-1.66 1.06-2.79 1.06s-2.065-.35-2.796-1.06c-.73-.71-1.1-1.72-1.1-3.03v-5.08h2.028v5.01c0 .73.17 1.3.5 1.72m13.694-6.732h2.03v9.07h-2.027l-4.33-5.69v5.69H96.2v-9.08h1.9l4.454 5.84v-5.85zm9.71 6.59c.5-.47.75-1.15.75-2.04 0-.9-.25-1.58-.746-2.06-.5-.48-1.264-.72-2.29-.72h-1.13v5.52h1.285c.925 0 1.637-.24 2.135-.7m1.49-5.4c.87.79 1.3 1.89 1.3 3.3s-.42 2.53-1.26 3.35c-.84.82-2.13 1.23-3.86 1.23h-3.1v-9.07h3.204c1.62 0 2.86.4 3.73 1.19m6.52 1.51l-1.14 2.64h2.27l-1.13-2.633zm2.73 6.38l-.845-1.96h-3.804l-.843 1.96h-2.152l3.92-9.072h1.96l3.92 9.078H123zm6.386-7.32v7.32h-2.025v-7.33h-2.57v-1.75h7.17v1.755h-2.57zm4.05-1.75h2.026v9.07h-2.022zm11.2 4.485c0-.81-.26-1.5-.78-2.07-.52-.577-1.16-.86-1.914-.86s-1.393.283-1.912.855c-.52.57-.78 1.26-.78 2.07 0 .81.26 1.49.78 2.06s1.16.85 1.92.85c.758 0 1.397-.286 1.916-.85.52-.57.78-1.258.78-2.068m.69 3.335c-.92.897-2.05 1.345-3.39 1.345-1.34 0-2.47-.44-3.39-1.34-.91-.896-1.37-2.01-1.37-3.34 0-1.336.457-2.45 1.374-3.346.92-.895 2.047-1.343 3.39-1.343 1.34 0 2.47.45 3.39 1.345.914.9 1.374 2.01 1.374 3.35s-.46 2.446-1.38 3.34m9.44-7.82h2.026v9.07h-2.03l-4.32-5.69v5.69h-2.028v-9.07h1.9l4.453 5.846v-5.84zM24.08 28.2h-6v14h14v-6h-8v-8zm30 .043v7.96h-7.95l-.043-.045v6.04h14v-14h-6.04l.048.045zm-36-14.042h6.046l-.045-.04V6.19h7.96l.05.045V.193h-14v14zm28-14v6h8v8h6V.2h-14z"/>
  <g opacity=".67">
    <clipPath id="a">
      <path d="M18.09.194h42v42h-42z"/>
    </clipPath>
    <g fill="#fff" fill-rule="nonzero" clip-path="url(#a)">
      <path d="M45.35 14.195l-8-8h8.74v-6h-14V6.24l7.957 7.954h5.303zm-7.215 13.998h-5.303l6.63 6.63 1.37 1.37h-8.74v6h14V36.15l-3.98-3.98-3.977-3.977zM54.09 14.195v8.74l-1.37-1.37-6.63-6.63v5.304l3.978 3.97 3.978 3.97h6.045V14.19h-6zm-22 7.953l-7.953-7.953H18.09v13.998h6.002v-8.74l8 7.998v-5.3z"/>
    </g>
  </g>
  <path fill="#fff" fill-rule="nonzero" d="M.382.194v1.22H5.4v.022L1.536 3.12v1.016L5.4 5.82v.027H.382v1.22h8.05V5.913L3.185 3.65 8.43 1.342V.194H.383zm0 8.568v5.14h1.154V9.98h2.362v3.345H4.98V9.982h2.297v3.92H8.43V8.76H.383zm0 6.288v1.22H5.4v.022l-3.864 1.683v1.016L5.4 20.68v.027H.382v1.22h8.05V20.77l-5.246-2.265 5.245-2.307V15.05H.39zm0 8.567v3.39c0 .633.21 1.16.635 1.584.405.43.955.65 1.65.66.42 0 .808-.1 1.165-.31.346-.22.576-.55.69-.99h.022c.11.23.234.43.37.59.13.16.265.28.41.37.3.17.617.24.948.24.648 0 1.17-.2 1.562-.6.39-.4.59-.99.597-1.78v-3.12H.39zm3.572 3.097c-.008.453-.127.784-.36.994-.235.21-.518.315-.85.315-.323 0-.603-.105-.84-.315-.238-.21-.36-.54-.368-.994v-1.877h2.418v1.877zm3.39-.116c-.008.446-.117.773-.327.983-.224.22-.498.32-.822.32-.324 0-.593-.1-.806-.32-.24-.21-.35-.53-.35-.98v-1.76h2.3v1.76zM.382 30.512v5.14h1.154v-3.92h2.362v3.346H4.98v-3.346h2.297v3.92H8.43v-5.14H.383zm6.96 7.508v1.91c0 .39-.082.688-.247.894-.188.262-.492.396-.91.403-.35 0-.645-.112-.884-.336-.25-.22-.39-.57-.39-1.02v-1.85h2.44zM.382 36.8v1.22H3.82v1.557l-3.438 1.66v1.453l3.572-1.866c.393 1.023 1.137 1.542 2.23 1.557.743-.02 1.315-.28 1.717-.8.36-.42.53-.97.53-1.64V36.8H.39z"/>
</svg>
