<svg xmlns="http://www.w3.org/2000/svg" fill-rule="evenodd" stroke-miterlimit="1.414" viewBox="0 0 145 43" clip-rule="evenodd" stroke-linejoin="round">
  <g fill="#fff">
    <path fill-rule="nonzero" d="M66.78.348h7.363v.756h-3.24v8.54h-.883v-8.54h-3.24V.348zm8.238 0h.89v4.04h5.515V.348h.882v9.295h-.882v-4.5h-5.516v4.5h-.89V.348zm9.162 0h6.42v.756h-5.53v3.36h5.18v.756h-5.18v3.668h5.593v.756H84.18V.348zM66.814 32.702h5.9v.756h-5.01v3.36h4.45v.756h-4.45v4.424h-.89v-9.296zm10.886-.196c2.91 0 4.374 2.29 4.374 4.844 0 2.555-1.456 4.844-4.375 4.844-2.92 0-4.39-2.29-4.39-4.844 0-2.555 1.45-4.844 4.39-4.844m0 8.925c2.45 0 3.5-2.05 3.5-4.08s-1.06-4.06-3.5-4.06c-2.45 0-3.5 2.06-3.5 4.09s1.04 4.09 3.5 4.09m5.66-8.75h.88v5.75c0 2.15 1 2.98 2.72 2.98s2.73-.83 2.73-2.98v-5.76h.88v5.95c0 1.91-1.03 3.54-3.62 3.54s-3.61-1.62-3.61-3.54v-5.95zm8.99 0h.98l5.42 7.86h.02v-7.86h.89V42h-1l-5.41-7.86h-.03V42h-.88v-9.297zm9.17 0h3.21c2.8.06 4.27 1.58 4.27 4.65s-1.46 4.58-4.27 4.65h-3.218v-9.3zm.88 8.54h1.89c2.66 0 3.83-1.11 3.83-3.89s-1.16-3.89-3.83-3.89h-1.89v7.786zm10.75-8.54h.99L117.8 42h-.95l-1.135-2.89h-4.2l-1.12 2.89h-.973l3.745-9.297zm-1.4 5.65h3.65l-1.8-4.76-1.856 4.76zm5-5.65h7.36v.76h-3.24V42H120v-8.54h-3.24v-.757z"/>
    <path d="M125.068 32.702h.882v9.296h-.882z"/>
    <path fill-rule="nonzero" d="M131.753 32.506c2.912 0 4.375 2.29 4.375 4.844 0 2.555-1.456 4.844-4.375 4.844-2.92 0-4.39-2.29-4.39-4.844 0-2.555 1.457-4.844 4.39-4.844m0 8.925c2.45 0 3.5-2.05 3.5-4.08s-1.022-4.06-3.5-4.06c-2.478 0-3.5 2.06-3.5 4.09s1.043 4.09 3.5 4.09m5.775-8.75h.987l5.41 7.86h.03v-7.86h.88V42h-.986l-5.42-7.86h-.03V42h-.89v-9.297zm-70.748-20h5.032v12.14h7.224v4.18H66.78V12.72z"/>
    <path d="M82.326 12.717h5.033V29.04h-5.04z"/>
    <path fill-rule="nonzero" d="M91.104 12.717h5.145l4.75 8.736h.05v-8.736h4.75V29.04h-4.9l-5-8.91h-.05v8.91H91.1V12.718zm33.286 10.017c0 4.55-2.402 6.7-7.435 6.7-5.033 0-7.455-2.15-7.455-6.7V12.717h5.033v8.897c0 1.645 0 3.752 2.45 3.752s2.38-2.1 2.38-3.752v-8.897h5.033v10.017h-.007zm8-2.38l-5.37-7.637h5.902l2.464 4.438 2.43-4.438h5.578l-5.236 7.686 5.824 8.638h-6.055l-2.793-4.86-2.877 4.87h-5.76l5.893-8.68zM26.102 33.64V16.924H17.73v25.074h25.08V33.64H26.103z"/>
    <path fill-opacity=".67" fill-rule="nonzero" d="M59.527.194h-41.79V12.73h8.35V8.588H51.17V33.64h-4.173v8.358h12.53V.194z"/>
    <path fill-rule="nonzero" d="M.164.194v1.22h5.018v.022L1.318 3.12v1.016L5.182 5.82v.027H.164v1.22h8.05V5.913L2.968 3.65 8.21 1.342V.194H.164zm0 8.568v5.14h1.154V9.98H3.68v3.345h1.083V9.982H7.06v3.92h1.153V8.76H.163zm0 6.288v1.22h5.018v.022l-3.864 1.683v1.016l3.864 1.69v.03H.164v1.22h8.05v-1.16L2.97 18.51l5.242-2.31v-1.15H.162zm0 8.567v3.39c0 .633.212 1.16.635 1.584.4.43.95.65 1.65.66.42 0 .8-.1 1.16-.31.34-.22.57-.55.69-.99h.02c.11.23.23.43.37.59.13.16.26.28.41.367.3.163.62.24.95.235.64 0 1.17-.2 1.56-.6.39-.4.59-.99.59-1.784v-3.12H.16zm3.572 3.097c-.007.453-.127.784-.36.994-.234.21-.518.315-.85.315-.323 0-.602-.105-.838-.315-.24-.21-.362-.54-.37-.994v-1.877h2.418v1.877zm3.39-.116c-.008.446-.116.773-.326.983-.225.22-.5.32-.823.32-.323 0-.592-.1-.806-.32-.23-.21-.34-.53-.34-.98v-1.76h2.3v1.76zM.164 30.512v5.14h1.154v-3.92H3.68v3.346h1.083v-3.346H7.06v3.92h1.153v-5.14H.163zm6.962 7.508v1.91c0 .39-.083.688-.25.894-.186.262-.49.396-.91.403-.35 0-.644-.112-.883-.336-.258-.22-.39-.57-.397-1.02v-1.85h2.44zM.164 36.8v1.22h3.44v1.557l-3.44 1.66v1.453l3.572-1.866c.394 1.023 1.137 1.542 2.23 1.557.744-.02 1.316-.28 1.717-.8.354-.42.53-.97.53-1.64V36.8H.163z"/>
  </g>
</svg>
